<?xml version="1.0" standalone="no"?><svg xmlns="http://www.w3.org/2000/svg" viewBox="0 0 1440 320"><path fill="#bb6765" fill-opacity="1" d="M0,320L16,277.3C32,235,64,149,96,133.3C128,117,160,171,192,170.7C224,171,256,117,288,112C320,107,352,149,384,138.7C416,128,448,64,480,42.7C512,21,544,43,576,64C608,85,640,107,672,101.3C704,96,736,64,768,69.3C800,75,832,117,864,160C896,203,928,245,960,261.3C992,277,1024,267,1056,256C1088,245,1120,235,1152,197.3C1184,160,1216,96,1248,74.7C1280,53,1312,75,1344,85.3C1376,96,1408,96,1424,96L1440,96L1440,0L1424,0C1408,0,1376,0,1344,0C1312,0,1280,0,1248,0C1216,0,1184,0,1152,0C1120,0,1088,0,1056,0C1024,0,992,0,960,0C928,0,896,0,864,0C832,0,800,0,768,0C736,0,704,0,672,0C640,0,608,0,576,0C544,0,512,0,480,0C448,0,416,0,384,0C352,0,320,0,288,0C256,0,224,0,192,0C160,0,128,0,96,0C64,0,32,0,16,0L0,0Z"></path></svg>